<svg width="30" height="30" viewBox="0 0 30 30" fill="none" xmlns="http://www.w3.org/2000/svg">
<path d="M5.19604 30C6.77294 30 10.5343 28.293 12.8867 26.5726C13.1323 26.3844 13.3391 26.3172 13.5459 26.3172C13.7139 26.3306 13.869 26.3441 14.0112 26.3441C23.3305 26.3306 30 21.0484 30 13.7903C30 6.8414 23.3175 1.25 14.9935 1.25C6.66954 1.25 0 6.8414 0 13.7903C0 18.1183 2.50754 21.9892 6.74709 24.3683C6.97975 24.5161 7.04438 24.7177 6.92805 24.9597C6.17837 26.2634 4.9246 27.7151 4.40758 28.4005C3.82594 29.1667 4.162 30 5.19604 30ZM15.0065 20.9812C14.3085 20.9812 13.7915 20.4704 13.7915 19.7446V13.1989L13.9207 10.336L12.7187 11.8952L11.2193 13.5215C11.0254 13.75 10.7281 13.8844 10.405 13.8844C9.75873 13.8844 9.28048 13.4005 9.28048 12.7419C9.28048 12.3925 9.38389 12.1371 9.60362 11.8817L14.0371 7.2043C14.3473 6.88172 14.6316 6.73387 15.0065 6.73387C15.3942 6.73387 15.6915 6.89516 15.9888 7.2043L20.4093 11.8817C20.642 12.1371 20.7454 12.3925 20.7454 12.7419C20.7454 13.4005 20.2671 13.8844 19.6209 13.8844C19.2977 13.8844 19.0004 13.75 18.7936 13.5215L17.3201 11.9086L16.1051 10.3226L16.2344 13.1989V19.7446C16.2344 20.4704 15.7174 20.9812 15.0065 20.9812Z" fill="#AEAFB4"/>
</svg>
