<svg width="30" height="30" viewBox="0 0 30 30" fill="none" xmlns="http://www.w3.org/2000/svg">
<g clip-path="url(#clip0_867_3797)">
<path d="M26.4693 16.4687C26.5335 16 26.5656 15.5156 26.5656 15C26.5656 14.5 26.5335 14 26.4532 13.5312L29.7141 11.0625C30.0032 10.8437 30.0835 10.4219 29.9068 10.1094L26.8227 4.92188C26.6299 4.57812 26.2283 4.46875 25.8749 4.57812L22.0358 6.07812C21.2326 5.48437 20.3812 4.98437 19.4335 4.60937L18.8552 0.640625C18.791 0.265625 18.4697 0 18.0842 0H11.9158C11.5303 0 11.2251 0.265625 11.1608 0.640625L10.5826 4.60937C9.63483 4.98437 8.7674 5.5 7.9803 6.07812L4.14114 4.57812C3.78775 4.45312 3.38616 4.57812 3.1934 4.92188L0.125295 10.1094C-0.0674657 10.4375 -0.0032123 10.8437 0.318056 11.0625L3.57893 13.5312C3.49861 14 3.43436 14.5156 3.43436 15C3.43436 15.4844 3.46648 16 3.5468 16.4687L0.285929 18.9375C-0.00321228 19.1562 -0.0835291 19.5781 0.0931683 19.8906L3.17734 25.0781C3.3701 25.4219 3.77169 25.5312 4.12508 25.4219L7.96423 23.9219C8.7674 24.5156 9.61876 25.0156 10.5665 25.3906L11.1448 29.3594C11.2251 29.7344 11.5303 30 11.9158 30H18.0842C18.4697 30 18.791 29.7344 18.8392 29.3594L19.4174 25.3906C20.3652 25.0156 21.2326 24.5156 22.0197 23.9219L25.8589 25.4219C26.2123 25.5469 26.6138 25.4219 26.8066 25.0781L29.8908 19.8906C30.0835 19.5469 30.0032 19.1562 29.698 18.9375L26.4693 16.4687ZM15 20.625C11.8194 20.625 9.21718 18.0938 9.21718 15C9.21718 11.9062 11.8194 9.375 15 9.375C18.1806 9.375 20.7828 11.9062 20.7828 15C20.7828 18.0938 18.1806 20.625 15 20.625Z" fill="#AEAFB4"/>
</g>
<defs>
<clipPath id="clip0_867_3797">
<rect width="30" height="30" fill="white"/>
</clipPath>
</defs>
</svg>
