<svg width="24" height="24" viewBox="0 0 24 24" fill="none" xmlns="http://www.w3.org/2000/svg">
<path d="M16.8654 4H10.0276C9.43869 4 9.06955 4.33398 9.07834 4.87012C9.08713 5.41504 9.43869 5.74902 10.0276 5.74902H16.7512C17.5686 5.74902 18.008 6.1709 18.008 7.02344V16.1553L16.7688 14.8018L16.0656 14.1074C15.6965 13.7471 15.1779 13.7119 14.8176 14.0898C14.4485 14.4502 14.4572 14.9775 14.8264 15.3467L17.8322 18.3438C18.5002 19.0029 19.2649 19.0029 19.9328 18.3438L22.9299 15.3467C23.3078 14.9775 23.3166 14.4502 22.9475 14.0898C22.5783 13.7207 22.0686 13.7383 21.6906 14.1074L20.9875 14.8018L19.7658 16.1465V6.86523C19.7658 4.97559 18.7639 4 16.8654 4ZM1.26486 10.3369C1.634 10.7061 2.15256 10.6885 2.5217 10.3193L3.22482 9.625L4.45529 8.28027V17.5615C4.45529 19.4424 5.44845 20.4268 7.34689 20.4268H14.1936C14.7736 20.4268 15.1428 20.0928 15.134 19.5479C15.134 19.0117 14.7736 18.6777 14.1936 18.6777H7.46115C6.65255 18.6777 6.20431 18.2559 6.20431 17.4033V8.27148L7.44357 9.625L8.1467 10.3193C8.52463 10.6797 9.03439 10.7061 9.40353 10.3369C9.76388 9.96777 9.76388 9.44922 9.38595 9.08008L6.38009 6.08301C5.71213 5.42383 4.95627 5.42383 4.2883 6.08301L1.28244 9.08008C0.913297 9.44922 0.904508 9.96777 1.26486 10.3369Z" fill="#3772E7"/>
</svg>
